<svg xmlns="http://www.w3.org/2000/svg" viewBox="0 0 512 512">
  <rect width="512" height="512" rx="128" fill="#102126"/>
  <path d="M120 156c0-13.255 10.745-24 24-24h176c61.856 0 112 50.144 112 112s-50.144 112-112 112H144c-13.255 0-24-10.745-24-24V156z" fill="#F7F5F2"/>
  <path d="M168 176h152c42.974 0 78 35.026 78 78s-35.026 78-78 78H168V176z" fill="#C8A27C"/>
  <path d="M136 348h248c0 39.765-32.235 72-72 72H208c-39.765 0-72-32.235-72-72z" fill="#8B6F47"/>
  <path d="M220 112c0-22.091 17.909-40 40-40 5.523 0 10 4.477 10 10v62h-50V112z" fill="#E8D8C4"/>
  <path d="M304 112c0-22.091 17.909-40 40-40 5.523 0 10 4.477 10 10v62h-50V112z" fill="#E8D8C4"/>
  <path d="M205 248c0-7.732 6.268-14 14-14h87c7.732 0 14 6.268 14 14s-6.268 14-14 14h-87c-7.732 0-14-6.268-14-14z" fill="#102126"/>
  <path d="M224 286c0-7.732 6.268-14 14-14h52c7.732 0 14 6.268 14 14s-6.268 14-14 14h-52c-7.732 0-14-6.268-14-14z" fill="#102126"/>
</svg>
